<?xml version="1.0" encoding="utf-8"?>
<!-- Generator: Adobe Illustrator 16.0.0, SVG Export Plug-In . SVG Version: 6.00 Build 0)  -->
<!DOCTYPE svg PUBLIC "-//W3C//DTD SVG 1.1//EN" "http://www.w3.org/Graphics/SVG/1.1/DTD/svg11.dtd">
<svg xmlns="http://www.w3.org/2000/svg" xmlns:xlink="http://www.w3.org/1999/xlink" xmlns:sketch="http://www.bohemiancoding.com/sketch/ns" width="80px" height="100px" viewBox="0 0 80 100" version="1.1" class="svg replaced-svg">
	<!-- Generator: Sketch 3.3.3 (12081) - http://www.bohemiancoding.com/sketch -->
	<title>bol-logo-header@2x</title>
	<desc>Created with Sketch.</desc>
	<defs></defs>
	<g id="Page-2" stroke="none" stroke-width="1" fill="none" fill-rule="evenodd" type="MSPage">
		<g class="color" type="MSArtboardGroup" transform="translate(-250.000000, -20.000000)" fill="#E35050">
			<g id="top" type="MSLayerGroup">
				<g id="bol-logo-header" transform="translate(250.000000, 20.000000)" type="MSShapeGroup">
					<path d="M29.2108974,44.3801282 C26.4592949,44.3801282 26.0573718,46.9429487 26.0573718,49.8426282 C26.0573718,52.7419872 26.4592949,55.3041667 29.2108974,55.3041667 C31.9641026,55.3041667 32.3657051,52.7419872 32.3657051,49.8426282 C32.3657051,46.9429487 31.9641026,44.3801282 29.2108974,44.3801282" id="Fill-1"></path>
					<path d="M80.7307692,64.7307692 C80.7307692,64.511859 80.6823718,64.3278846 80.3137821,64.3278846 L79.7403846,64.3278846 L79.7403846,65.1185897 L80.3137821,65.1185897 C80.6823718,65.1185897 80.7307692,64.9426282 80.7307692,64.7307692" id="Fill-2"></path>
					<path d="M41.7596154,65.2929487 C39.0064103,65.2929487 38.6048077,67.8548077 38.6048077,70.7557692 C38.6048077,73.6551282 39.0064103,76.2169872 41.7596154,76.2169872 C44.5112179,76.2169872 44.913141,73.6551282 44.913141,70.7557692 C44.913141,67.8548077 44.5112179,65.2929487 41.7596154,65.2929487" id="Fill-3"></path>
					<path d="M32.8535256,32.0839744 C32.8535256,30.7083333 32.1964744,30.0727564 30.4403846,30.0727564 L27.7939103,30.0727564 L27.7939103,34.0519231 L30.3971154,34.0519231 C32.4301282,34.0519231 32.8535256,33.0586538 32.8535256,32.0839744" id="Fill-4"></path>
					<path d="M32.3451923,25.5217949 C32.3451923,24.6528846 32.0477564,23.8054487 30.2698718,23.8054487 L27.7939103,23.8054487 L27.7939103,27.2570513 L30.4403846,27.2570513 C31.9846154,27.2570513 32.3451923,26.3682692 32.3451923,25.5217949" id="Fill-5"></path>
					<path d="M0.0451923077,99.6810897 L99.7246795,99.6810897 L99.7246795,0.0016025641 L0.0451923077,0.0016025641 L0.0451923077,99.6810897 Z M37.3637821,34.3919872 L39.2689103,34.1804487 L39.2689103,23.6798077 L37.3637821,23.4669872 L37.3637821,20.9907051 L44.1176282,20.9907051 L44.1176282,23.4669872 L42.2105769,23.6798077 L42.2105769,34.1804487 L44.1176282,34.3919872 L44.1176282,36.8689103 L37.3637821,36.8689103 L37.3637821,34.3919872 L37.3637821,34.3919872 Z M22.9448718,34.3919872 L24.8509615,34.1804487 L24.8509615,23.6798077 L22.9448718,23.4679487 L22.9448718,20.9907051 L30.2070513,20.9907051 C34.1230769,20.9907051 35.4362179,23.0442308 35.4362179,25.5217949 C35.4362179,26.6009615 35.0548077,27.6589744 34.25,28.4852564 C35.4157051,29.2887821 35.9227564,30.6660256 35.9227564,32.0839744 C35.9227564,34.7516026 34.4836538,36.8689103 30.3125,36.8689103 L22.9448718,36.8689103 L22.9448718,34.3919872 L22.9448718,34.3919872 Z M34.3554487,78.6939103 L22.9448718,78.6939103 L22.9448718,76.2169872 L24.8509615,76.0051282 L24.8509615,65.5044872 L22.9448718,65.2929487 L22.9448718,62.8157051 L29.6573718,62.8157051 L29.6573718,65.2929487 L27.7503205,65.5044872 L27.7503205,75.8778846 L31.6676282,75.8778846 L31.8794872,73.9733974 L34.3554487,73.9733974 L34.3554487,78.6939103 L34.3554487,78.6939103 Z M29.2108974,58.1198718 C23.7919872,58.1198718 23.0503205,53.9919872 23.0503205,49.8426282 C23.0503205,45.6932692 23.7919872,41.5637821 29.2108974,41.5637821 C34.6528846,41.5637821 35.3717949,45.6932692 35.3717949,49.8426282 C35.3717949,53.9919872 34.6528846,58.1198718 29.2108974,58.1198718 L29.2108974,58.1198718 Z M41.7596154,79.0326923 C36.3378205,79.0326923 35.5977564,74.9038462 35.5977564,70.7557692 C35.5977564,66.6057692 36.3378205,62.4782051 41.7596154,62.4782051 C47.199359,62.4782051 47.9205128,66.6057692 47.9205128,70.7557692 C47.9205128,74.9038462 47.199359,79.0326923 41.7596154,79.0326923 L41.7596154,79.0326923 Z M48.025641,46.6237179 L45.5487179,46.6237179 L45.3355769,44.7185897 L41.2503205,44.7185897 L41.2503205,48.1701923 L45.3355769,48.1701923 L45.3355769,50.9858974 L41.2503205,50.9858974 L41.2503205,55.0935897 L43.1560897,55.3041667 L43.1560897,57.7810897 L36.4022436,57.7810897 L36.4022436,55.3041667 L38.3070513,55.0935897 L38.3070513,44.5913462 L36.4022436,44.3801282 L36.4022436,41.9035256 L48.025641,41.9035256 L48.025641,46.6237179 L48.025641,46.6237179 Z M48.0647436,23.8054487 L47.8528846,25.711859 L45.3769231,25.711859 L45.3769231,20.9907051 L57.9721154,20.9907051 L57.9721154,25.711859 L55.4961538,25.711859 L55.2833333,23.8054487 L53.1448718,23.8054487 L53.1448718,34.1804487 L55.0496795,34.3919872 L55.0496795,36.8679487 L48.2980769,36.8679487 L48.2980769,34.3919872 L50.2032051,34.1804487 L50.2032051,23.8054487 L48.0647436,23.8054487 L48.0647436,23.8054487 Z M63.8858974,65.2929487 L61.8108974,65.5259615 L57.1330128,79.0326923 L55.0794872,79.0326923 L50.3794872,65.5259615 L48.3051282,65.2929487 L48.3051282,62.8157051 L55.3977564,62.8157051 L55.3977564,65.2929487 L53.4496795,65.5044872 L56.1163462,74.0798077 L58.7634615,65.5044872 L56.8153846,65.2929487 L56.8153846,62.8157051 L63.8858974,62.8157051 L63.8858974,65.2929487 L63.8858974,65.2929487 Z M59.2509615,36.1903846 L59.2509615,31.8291667 L61.7304487,31.8291667 L61.9823718,34.2009615 C62.6189103,34.3282051 63.3173077,34.3919872 64.0794872,34.3919872 C66.4926282,34.3919872 67.1907051,33.2705128 67.1907051,31.9573718 C67.1907051,30.6445513 66.4721154,30.3054487 64.5669872,30.0717949 C60.6910256,29.5852564 59.2509615,28.400641 59.2509615,25.5419872 C59.2509615,23.5733974 60.1826923,20.6509615 64.8830128,20.6509615 C66.7259615,20.6509615 68.2916667,21.075641 69.4134615,21.5826923 L69.4134615,26.0288462 L66.9365385,26.0288462 L66.661859,23.6362179 C66.0483974,23.5105769 65.4772436,23.4679487 64.8830128,23.4679487 C62.6814103,23.4679487 62.2157051,24.4846154 62.2157051,25.5641026 C62.2157051,26.8538462 63.211859,27.024359 65.0317308,27.2583333 C68.4407051,27.7025641 70.1977564,28.7599359 70.1977564,31.9573718 C70.1977564,34.2858974 68.9903846,37.2067308 64.0573718,37.2067308 C62.6602564,37.2067308 60.2471154,36.6996795 59.2509615,36.1903846 L59.2509615,36.1903846 Z M76.825,67.536859 L74.3487179,67.536859 L74.136859,65.6314103 L69.8602564,65.6314103 L69.8602564,69.3474359 L74.136859,69.3474359 L74.136859,72.163141 L69.8602564,72.163141 L69.8602564,75.8778846 L74.136859,75.8778846 L74.3487179,73.9733974 L76.825,73.9733974 L76.825,78.6939103 L65.0326923,78.6939103 L65.0326923,76.2169872 L66.9378205,76.0064103 L66.9378205,65.5057692 L65.0326923,65.2929487 L65.0326923,62.8157051 L76.825,62.8157051 L76.825,67.536859 L76.825,67.536859 Z M80.2451923,66.9285256 C79.2961538,66.9285256 78.4708333,66.6894231 78.4708333,65.1884615 C78.4708333,63.6801282 79.2961538,63.4464744 80.2451923,63.4464744 C81.1951923,63.4464744 82.0217949,63.6801282 82.0217949,65.1884615 C82.0217949,66.6894231 81.1951923,66.9285256 80.2451923,66.9285256 L80.2451923,66.9285256 Z" id="Fill-6"></path>
					<path d="M80.2451923,63.6317308 C79.3320513,63.6317308 78.6814103,63.8907051 78.6814103,65.1884615 C78.6814103,66.4855769 79.3320513,66.7442308 80.2451923,66.7442308 C81.1608974,66.7442308 81.8089744,66.4855769 81.8089744,65.1884615 C81.8089744,63.8907051 81.1608974,63.6317308 80.2451923,63.6317308 L80.2451923,63.6317308 Z M80.8198718,66.2323718 L80.3689103,65.3169872 L79.7403846,65.3169872 L79.7403846,66.2323718 L79.5352564,66.2323718 L79.5352564,64.1435897 L80.2737179,64.1435897 C80.7923077,64.1435897 80.9480769,64.3692308 80.9480769,64.7307692 C80.9480769,65.0166667 80.8448718,65.2080128 80.5737179,65.2836538 L81.0650641,66.2323718 L80.8198718,66.2323718 L80.8198718,66.2323718 Z" id="Fill-7"></path>
				</g>
			</g>
		</g>
	</g>
</svg>